<mxfile host="app.diagrams.net" modified="2020-07-29T17:26:53.459Z" agent="5.0 (Windows NT 10.0; Win64; x64) AppleWebKit/537.36 (KHTML, like Gecko) Chrome/80.0.3987.163 Safari/537.36" etag="8Cydn0HSMzrcMKCXwV9V" version="13.5.5" type="github">
  <diagram id="M8D3CU6c4oh0HW6at1Hh" name="Page-1">
    <mxGraphModel dx="1412" dy="744" grid="1" gridSize="10" guides="1" tooltips="1" connect="1" arrows="1" fold="1" page="1" pageScale="1" pageWidth="827" pageHeight="1169" math="0" shadow="0">
      <root>
        <mxCell id="0" />
        <mxCell id="1" parent="0" />
        <mxCell id="tKjUs8FoC9hKr073ne-s-11" value="" style="group" vertex="1" connectable="0" parent="1">
          <mxGeometry x="200" y="80" width="440" height="450" as="geometry" />
        </mxCell>
        <mxCell id="tKjUs8FoC9hKr073ne-s-2" value="Flur&lt;br&gt;Erdgeschoss" style="rounded=0;whiteSpace=wrap;html=1;" vertex="1" parent="tKjUs8FoC9hKr073ne-s-11">
          <mxGeometry x="160" width="120" height="450" as="geometry" />
        </mxCell>
        <mxCell id="tKjUs8FoC9hKr073ne-s-3" value="Garderobe" style="rounded=1;whiteSpace=wrap;html=1;" vertex="1" parent="tKjUs8FoC9hKr073ne-s-11">
          <mxGeometry x="320" y="40" width="120" height="60" as="geometry" />
        </mxCell>
        <mxCell id="tKjUs8FoC9hKr073ne-s-5" value="Abstellkammer" style="rounded=1;whiteSpace=wrap;html=1;" vertex="1" parent="tKjUs8FoC9hKr073ne-s-11">
          <mxGeometry y="40" width="120" height="60" as="geometry" />
        </mxCell>
        <mxCell id="tKjUs8FoC9hKr073ne-s-6" value="KÃ¼che" style="rounded=1;whiteSpace=wrap;html=1;" vertex="1" parent="tKjUs8FoC9hKr073ne-s-11">
          <mxGeometry y="160" width="120" height="60" as="geometry" />
        </mxCell>
        <mxCell id="tKjUs8FoC9hKr073ne-s-7" value="Speisesaal" style="rounded=1;whiteSpace=wrap;html=1;" vertex="1" parent="tKjUs8FoC9hKr073ne-s-11">
          <mxGeometry y="280" width="120" height="60" as="geometry" />
        </mxCell>
        <mxCell id="tKjUs8FoC9hKr073ne-s-8" value="Salon" style="rounded=0;whiteSpace=wrap;html=1;" vertex="1" parent="tKjUs8FoC9hKr073ne-s-11">
          <mxGeometry x="320" y="160" width="120" height="60" as="geometry" />
        </mxCell>
        <mxCell id="tKjUs8FoC9hKr073ne-s-9" value="Bad" style="rounded=1;whiteSpace=wrap;html=1;" vertex="1" parent="tKjUs8FoC9hKr073ne-s-11">
          <mxGeometry x="320" y="280" width="120" height="60" as="geometry" />
        </mxCell>
      </root>
    </mxGraphModel>
  </diagram>
</mxfile>
